<svg width="200" height="200" viewBox="0 0 200 200" fill="none" xmlns="http://www.w3.org/2000/svg">
<rect width="200" height="200" fill="black" fill-opacity="0.5"/>
<path d="M100 89.2188C94 89.2188 89.2188 94.0938 89.2188 100C89.2188 106 94 110.781 100 110.781C105.906 110.781 110.781 106 110.781 100C110.781 94.0938 105.906 89.2188 100 89.2188ZM100 107.031C96.1562 107.031 92.9688 103.938 92.9688 100C92.9688 96.1562 96.0625 93.0625 100 93.0625C103.844 93.0625 106.938 96.1562 106.938 100C106.938 103.938 103.844 107.031 100 107.031ZM113.688 88.8438C113.688 90.25 112.562 91.375 111.156 91.375C109.75 91.375 108.625 90.25 108.625 88.8438C108.625 87.4375 109.75 86.3125 111.156 86.3125C112.562 86.3125 113.688 87.4375 113.688 88.8438ZM120.812 91.375C120.625 88 119.875 85 117.438 82.5625C115 80.125 112 79.375 108.625 79.1875C105.156 79 94.75 79 91.2812 79.1875C87.9062 79.375 85 80.125 82.4688 82.5625C80.0312 85 79.2812 88 79.0938 91.375C78.9062 94.8438 78.9062 105.25 79.0938 108.719C79.2812 112.094 80.0312 115 82.4688 117.531C85 119.969 87.9062 120.719 91.2812 120.906C94.75 121.094 105.156 121.094 108.625 120.906C112 120.719 115 119.969 117.438 117.531C119.875 115 120.625 112.094 120.812 108.719C121 105.25 121 94.8438 120.812 91.375ZM116.312 112.375C115.656 114.25 114.156 115.656 112.375 116.406C109.562 117.531 103 117.25 100 117.25C96.9062 117.25 90.3438 117.531 87.625 116.406C85.75 115.656 84.3438 114.25 83.5938 112.375C82.4688 109.656 82.75 103.094 82.75 100C82.75 97 82.4688 90.4375 83.5938 87.625C84.3438 85.8438 85.75 84.4375 87.625 83.6875C90.3438 82.5625 96.9062 82.8438 100 82.8438C103 82.8438 109.562 82.5625 112.375 83.6875C114.156 84.3438 115.562 85.8438 116.312 87.625C117.438 90.4375 117.156 97 117.156 100C117.156 103.094 117.438 109.656 116.312 112.375Z" fill="white"/>
</svg>
